<svg width="66" height="123" viewBox="0 0 66 123" fill="none" xmlns="http://www.w3.org/2000/svg">
<mask id="path-1-outside-1_32_3" maskUnits="userSpaceOnUse" x="7" y="46" width="48" height="57" fill="black">
<rect fill="white" x="7" y="46" width="48" height="57"/>
<path d="M21.2833 101.232C17.2299 101.232 14.1153 100.592 11.9393 99.312C9.76325 98.0747 8.67525 96.2827 8.67525 93.936C8.67525 92.528 9.05925 91.1627 9.82725 89.84C10.5526 88.56 11.4912 87.6 12.6432 86.96C13.6246 88.5387 14.9259 89.712 16.5473 90.48C18.2113 91.2907 20.0459 91.696 22.0513 91.696C25.4219 91.696 28.5366 90.544 31.3953 88.24C34.2539 85.9787 36.5579 82.0107 38.3073 76.336C40.0993 70.6613 40.8886 63.024 40.6753 53.424C41.8699 51.9733 43.1499 50.9067 44.5153 50.224C45.8806 49.4987 47.4379 49.136 49.1873 49.136C50.6806 49.136 51.8113 49.52 52.5793 50.288C53.3473 51.056 53.7313 52.1867 53.7313 53.68C53.7313 61.7867 52.6433 69.4453 50.4673 76.656C48.2913 83.824 44.7713 89.712 39.9073 94.32C35.0433 98.928 28.8353 101.232 21.2833 101.232ZM23.3313 85.36C20.8993 85.36 18.7446 84.7627 16.8673 83.568C15.0326 82.3733 13.6033 80.688 12.5793 78.512C11.5553 76.336 11.0433 73.8187 11.0433 70.96C11.0433 66.3947 12.1313 62.3413 14.3073 58.8C16.4833 55.2587 19.5126 52.5067 23.3953 50.544C27.3206 48.5813 31.8219 47.6 36.8993 47.6C38.6913 47.6 40.3766 47.7707 41.9553 48.112C42.4673 49.52 42.7233 51.2907 42.7233 53.424C39.3099 53.424 36.1313 54.1707 33.1873 55.664C30.2859 57.1147 27.9819 59.0987 26.2753 61.616C24.5686 64.0907 23.7153 66.8 23.7153 69.744C23.7153 72.0053 24.1846 73.776 25.1233 75.056C26.0619 76.2933 27.3633 76.912 29.0273 76.912C30.6913 76.912 32.4193 76.208 34.2113 74.8C36.0033 73.3493 37.5179 70.8747 38.7553 67.376C40.0353 63.8347 40.6753 59.184 40.6753 53.424V76.208H36.7073C35.4273 79.0667 33.5926 81.3067 31.2033 82.928C28.8566 84.5493 26.2326 85.36 23.3313 85.36Z"/>
</mask>
<g filter="url(#filter0_i_32_3)">
<path d="M21.2833 101.232C17.2299 101.232 14.1153 100.592 11.9393 99.312C9.76325 98.0747 8.67525 96.2827 8.67525 93.936C8.67525 92.528 9.05925 91.1627 9.82725 89.84C10.5526 88.56 11.4912 87.6 12.6432 86.96C13.6246 88.5387 14.9259 89.712 16.5473 90.48C18.2113 91.2907 20.0459 91.696 22.0513 91.696C25.4219 91.696 28.5366 90.544 31.3953 88.24C34.2539 85.9787 36.5579 82.0107 38.3073 76.336C40.0993 70.6613 40.8886 63.024 40.6753 53.424C41.8699 51.9733 43.1499 50.9067 44.5153 50.224C45.8806 49.4987 47.4379 49.136 49.1873 49.136C50.6806 49.136 51.8113 49.52 52.5793 50.288C53.3473 51.056 53.7313 52.1867 53.7313 53.68C53.7313 61.7867 52.6433 69.4453 50.4673 76.656C48.2913 83.824 44.7713 89.712 39.9073 94.32C35.0433 98.928 28.8353 101.232 21.2833 101.232ZM23.3313 85.36C20.8993 85.36 18.7446 84.7627 16.8673 83.568C15.0326 82.3733 13.6033 80.688 12.5793 78.512C11.5553 76.336 11.0433 73.8187 11.0433 70.96C11.0433 66.3947 12.1313 62.3413 14.3073 58.8C16.4833 55.2587 19.5126 52.5067 23.3953 50.544C27.3206 48.5813 31.8219 47.6 36.8993 47.6C38.6913 47.6 40.3766 47.7707 41.9553 48.112C42.4673 49.52 42.7233 51.2907 42.7233 53.424C39.3099 53.424 36.1313 54.1707 33.1873 55.664C30.2859 57.1147 27.9819 59.0987 26.2753 61.616C24.5686 64.0907 23.7153 66.8 23.7153 69.744C23.7153 72.0053 24.1846 73.776 25.1233 75.056C26.0619 76.2933 27.3633 76.912 29.0273 76.912C30.6913 76.912 32.4193 76.208 34.2113 74.8C36.0033 73.3493 37.5179 70.8747 38.7553 67.376C40.0353 63.8347 40.6753 59.184 40.6753 53.424V76.208H36.7073C35.4273 79.0667 33.5926 81.3067 31.2033 82.928C28.8566 84.5493 26.2326 85.36 23.3313 85.36Z" fill="#6E5B5B"/>
</g>
<path d="M11.9393 99.312L12.4463 98.4501L12.4399 98.4463L12.4336 98.4427L11.9393 99.312ZM9.82725 89.84L10.6921 90.3422L10.6973 90.333L9.82725 89.84ZM12.6432 86.96L13.4925 86.4321L12.9899 85.6235L12.1576 86.0858L12.6432 86.96ZM16.5473 90.48L16.9852 89.581L16.9753 89.5763L16.5473 90.48ZM31.3953 88.24L30.7748 87.4557L30.7677 87.4614L31.3953 88.24ZM38.3073 76.336L37.3536 76.0349L37.3516 76.0414L38.3073 76.336ZM40.6753 53.424L39.9033 52.7883L39.6672 53.075L39.6755 53.4462L40.6753 53.424ZM44.5153 50.224L44.9625 51.1184L44.9735 51.1129L44.9844 51.1071L44.5153 50.224ZM52.5793 50.288L51.8721 50.9951L51.8721 50.9951L52.5793 50.288ZM50.4673 76.656L51.4241 76.9465L51.4246 76.9449L50.4673 76.656ZM39.9073 94.32L40.595 95.046L40.595 95.046L39.9073 94.32ZM16.8673 83.568L16.3215 84.406L16.3304 84.4117L16.8673 83.568ZM12.5793 78.512L13.4841 78.0862L12.5793 78.512ZM14.3073 58.8L15.1593 59.3235L14.3073 58.8ZM23.3953 50.544L22.948 49.6496L22.9441 49.6515L23.3953 50.544ZM41.9553 48.112L42.895 47.7703L42.7063 47.2513L42.1666 47.1346L41.9553 48.112ZM42.7233 53.424V54.424H43.7233V53.424H42.7233ZM33.1873 55.664L33.6345 56.5584L33.6396 56.5558L33.1873 55.664ZM26.2753 61.616L27.0985 62.1838L27.103 62.1772L26.2753 61.616ZM25.1233 75.056L24.3168 75.6474L24.3216 75.6539L24.3266 75.6604L25.1233 75.056ZM34.2113 74.8L34.8291 75.5863L34.8348 75.5818L34.8404 75.5772L34.2113 74.8ZM38.7553 67.376L37.8148 67.0361L37.8125 67.0426L38.7553 67.376ZM40.6753 76.208V77.208H41.6753V76.208H40.6753ZM36.7073 76.208V75.208H36.0593L35.7946 75.7993L36.7073 76.208ZM31.2033 82.928L30.6417 82.1005L30.6348 82.1053L31.2033 82.928ZM21.2833 101.232V100.232C17.3108 100.232 14.4021 99.6006 12.4463 98.4501L11.9393 99.312L11.4322 100.174C13.8284 101.583 17.149 102.232 21.2833 102.232V101.232ZM11.9393 99.312L12.4336 98.4427C10.5446 97.3686 9.67525 95.8946 9.67525 93.936H8.67525H7.67525C7.67525 96.6708 8.98192 98.7807 11.4449 100.181L11.9393 99.312ZM8.67525 93.936H9.67525C9.67525 92.7194 10.0047 91.5258 10.692 90.3421L9.82725 89.84L8.96246 89.3379C8.11378 90.7995 7.67525 92.3366 7.67525 93.936H8.67525ZM9.82725 89.84L10.6973 90.333C11.3428 89.1938 12.1558 88.3747 13.1289 87.8342L12.6432 86.96L12.1576 86.0858C10.8267 86.8253 9.76236 87.9262 8.95723 89.347L9.82725 89.84ZM12.6432 86.96L11.794 87.4879C12.8728 89.2235 14.3178 90.5304 16.1192 91.3837L16.5473 90.48L16.9753 89.5763C15.5341 88.8936 14.3763 87.8538 13.4925 86.4321L12.6432 86.96ZM16.5473 90.48L16.1093 91.379C17.9208 92.2615 19.907 92.696 22.0513 92.696V91.696V90.696C20.1848 90.696 18.5017 90.3198 16.9852 89.581L16.5473 90.48ZM22.0513 91.696V92.696C25.6711 92.696 29.0033 91.4522 32.0228 89.0186L31.3953 88.24L30.7677 87.4614C28.0699 89.6358 25.1727 90.696 22.0513 90.696V91.696ZM31.3953 88.24L32.0157 89.0243C35.1045 86.5808 37.4881 82.3879 39.2629 76.6306L38.3073 76.336L37.3516 76.0414C35.6278 81.6334 33.4033 85.3765 30.7748 87.4557L31.3953 88.24ZM38.3073 76.336L39.2608 76.6371C41.0998 70.8138 41.8895 63.0527 41.675 53.4018L40.6753 53.424L39.6755 53.4462C39.8877 62.9953 39.0987 70.5089 37.3537 76.0349L38.3073 76.336ZM40.6753 53.424L41.4472 54.0597C42.5729 52.6927 43.7477 51.7258 44.9625 51.1184L44.5153 50.224L44.068 49.3296C42.5522 50.0875 41.1669 51.2539 39.9033 52.7883L40.6753 53.424ZM44.5153 50.224L44.9844 51.1071C46.1872 50.4681 47.5797 50.136 49.1873 50.136V49.136V48.136C47.2961 48.136 45.574 48.5292 44.0461 49.3409L44.5153 50.224ZM49.1873 49.136V50.136C50.517 50.136 51.353 50.476 51.8721 50.9951L52.5793 50.288L53.2864 49.5809C52.2695 48.564 50.8442 48.136 49.1873 48.136V49.136ZM52.5793 50.288L51.8721 50.9951C52.3913 51.5142 52.7313 52.3503 52.7313 53.68H53.7313H54.7313C54.7313 52.023 54.3032 50.5978 53.2864 49.5809L52.5793 50.288ZM53.7313 53.68H52.7313C52.7313 61.6962 51.6555 69.257 49.5099 76.3671L50.4673 76.656L51.4246 76.9449C53.631 69.6337 54.7313 61.8771 54.7313 53.68H53.7313ZM50.4673 76.656L49.5104 76.3655C47.3787 83.3875 43.9432 89.119 39.2195 93.594L39.9073 94.32L40.595 95.046C45.5993 90.305 49.2038 84.2605 51.4241 76.9465L50.4673 76.656ZM39.9073 94.32L39.2195 93.594C34.5653 98.0033 28.6146 100.232 21.2833 100.232V101.232V102.232C29.0559 102.232 35.5212 99.8527 40.595 95.046L39.9073 94.32ZM23.3313 85.36V84.36C21.0711 84.36 19.1062 83.8075 17.4041 82.7243L16.8673 83.568L16.3304 84.4117C18.383 85.7179 20.7274 86.36 23.3313 86.36V85.36ZM16.8673 83.568L17.4129 82.73C15.7491 81.6466 14.437 80.1112 13.4841 78.0862L12.5793 78.512L11.6744 78.9378C12.7695 81.2648 14.3161 83.1001 16.3216 84.406L16.8673 83.568ZM12.5793 78.512L13.4841 78.0862C12.5335 76.0662 12.0433 73.6989 12.0433 70.96H11.0433H10.0433C10.0433 73.9384 10.577 76.6058 11.6744 78.9378L12.5793 78.512ZM11.0433 70.96H12.0433C12.0433 66.5607 13.0894 62.6921 15.1593 59.3235L14.3073 58.8L13.4552 58.2765C11.1731 61.9906 10.0433 66.2286 10.0433 70.96H11.0433ZM14.3073 58.8L15.1593 59.3235C17.2337 55.9474 20.1208 53.3197 23.8464 51.4365L23.3953 50.544L22.9441 49.6515C18.9043 51.6936 15.7328 54.5699 13.4552 58.2765L14.3073 58.8ZM23.3953 50.544L23.8425 51.4384C27.6087 49.5553 31.9528 48.6 36.8993 48.6V47.6V46.6C31.6911 46.6 27.0325 47.6073 22.948 49.6496L23.3953 50.544ZM36.8993 47.6V48.6C38.6278 48.6 40.2418 48.7646 41.7439 49.0894L41.9553 48.112L42.1666 47.1346C40.5114 46.7767 38.7547 46.6 36.8993 46.6V47.6ZM41.9553 48.112L41.0155 48.4537C41.4746 49.7164 41.7233 51.3619 41.7233 53.424H42.7233H43.7233C43.7233 51.2195 43.4599 49.3236 42.895 47.7703L41.9553 48.112ZM42.7233 53.424V52.424C39.1582 52.424 35.8239 53.2053 32.7349 54.7722L33.1873 55.664L33.6396 56.5558C36.4386 55.1361 39.4616 54.424 42.7233 54.424V53.424ZM33.1873 55.664L32.74 54.7696C29.696 56.2916 27.2568 58.3862 25.4475 61.0548L26.2753 61.616L27.103 62.1772C28.707 59.8111 30.8759 57.9377 33.6345 56.5584L33.1873 55.664ZM26.2753 61.616L25.452 61.0483C23.6328 63.6861 22.7153 66.5927 22.7153 69.744H23.7153H24.7153C24.7153 67.0073 25.5043 64.4952 27.0985 62.1837L26.2753 61.616ZM23.7153 69.744H22.7153C22.7153 72.1307 23.2091 74.1368 24.3168 75.6474L25.1233 75.056L25.9297 74.4646C25.1601 73.4152 24.7153 71.88 24.7153 69.744H23.7153ZM25.1233 75.056L24.3266 75.6604C25.4694 77.1669 27.0763 77.912 29.0273 77.912V76.912V75.912C27.6502 75.912 26.6544 75.4198 25.9199 74.4516L25.1233 75.056ZM29.0273 76.912V77.912C30.9854 77.912 32.9253 77.0821 34.8291 75.5863L34.2113 74.8L33.5934 74.0137C31.9132 75.3339 30.3971 75.912 29.0273 75.912V76.912ZM34.2113 74.8L34.8404 75.5772C36.8385 73.9597 38.4331 71.2862 39.698 67.7094L38.7553 67.376L37.8125 67.0426C36.6027 70.4632 35.168 72.7389 33.5821 74.0228L34.2113 74.8ZM38.7553 67.376L39.6957 67.7159C41.0302 64.0238 41.6753 59.2451 41.6753 53.424H40.6753H39.6753C39.6753 59.1229 39.0403 63.6455 37.8148 67.0361L38.7553 67.376ZM40.6753 53.424H39.6753V76.208H40.6753H41.6753V53.424H40.6753ZM40.6753 76.208V75.208H36.7073V76.208V77.208H40.6753V76.208ZM36.7073 76.208L35.7946 75.7993C34.5838 78.5034 32.8644 80.5923 30.6417 82.1005L31.2033 82.928L31.7648 83.7555C34.3207 82.0211 36.2707 79.6299 37.6199 76.6167L36.7073 76.208ZM31.2033 82.928L30.6348 82.1053C28.4583 83.6091 26.0332 84.36 23.3313 84.36V85.36V86.36C26.4319 86.36 29.2549 85.4896 31.7717 83.7507L31.2033 82.928Z" fill="black" mask="url(#path-1-outside-1_32_3)"/>
<defs>
<filter id="filter0_i_32_3" x="7.67525" y="46.6" width="47.056" height="59.6321" filterUnits="userSpaceOnUse" color-interpolation-filters="sRGB">
<feFlood flood-opacity="0" result="BackgroundImageFix"/>
<feBlend mode="normal" in="SourceGraphic" in2="BackgroundImageFix" result="shape"/>
<feColorMatrix in="SourceAlpha" type="matrix" values="0 0 0 0 0 0 0 0 0 0 0 0 0 0 0 0 0 0 127 0" result="hardAlpha"/>
<feOffset dy="4"/>
<feGaussianBlur stdDeviation="2"/>
<feComposite in2="hardAlpha" operator="arithmetic" k2="-1" k3="1"/>
<feColorMatrix type="matrix" values="0 0 0 0 0 0 0 0 0 0 0 0 0 0 0 0 0 0 0.25 0"/>
<feBlend mode="normal" in2="shape" result="effect1_innerShadow_32_3"/>
</filter>
</defs>
</svg>
