<svg width="172" height="52" viewBox="0 0 172 52" fill="none" xmlns="http://www.w3.org/2000/svg">
<mask id="path-1-outside-1_6_12" maskUnits="userSpaceOnUse" x="0" y="0" width="172" height="52" fill="black">
<rect fill="white" width="172" height="52"/>
<path d="M11.2209 50.424C8.18088 50.424 5.84488 49.944 4.21288 48.984C2.58088 48.056 1.76488 46.712 1.76488 44.952C1.76488 43.896 2.05288 42.872 2.62888 41.88C3.17288 40.92 3.87688 40.2 4.74088 39.72C5.47688 40.904 6.45288 41.784 7.66888 42.36C8.91688 42.968 10.2929 43.272 11.7969 43.272C14.3249 43.272 16.6609 42.408 18.8049 40.68C20.9489 38.984 22.6769 36.008 23.9889 31.752C25.3329 27.496 25.9249 21.768 25.7649 14.568C26.6609 13.48 27.6209 12.68 28.6449 12.168C29.6689 11.624 30.8369 11.352 32.1489 11.352C33.2689 11.352 34.1169 11.64 34.6929 12.216C35.2689 12.792 35.5569 13.64 35.5569 14.76C35.5569 20.84 34.7409 26.584 33.1089 31.992C31.4769 37.368 28.8369 41.784 25.1889 45.24C21.5409 48.696 16.8849 50.424 11.2209 50.424ZM12.7569 38.52C10.9329 38.52 9.31688 38.072 7.90888 37.176C6.53288 36.28 5.46088 35.016 4.69288 33.384C3.92488 31.752 3.54088 29.864 3.54088 27.72C3.54088 24.296 4.35688 21.256 5.98888 18.6C7.62088 15.944 9.89288 13.88 12.8049 12.408C15.7489 10.936 19.1249 10.2 22.9329 10.2C24.2769 10.2 25.5409 10.328 26.7249 10.584C27.1089 11.64 27.3009 12.968 27.3009 14.568C24.7409 14.568 22.3569 15.128 20.1489 16.248C17.9729 17.336 16.2449 18.824 14.9649 20.712C13.6849 22.568 13.0449 24.6 13.0449 26.808C13.0449 28.504 13.3969 29.832 14.1009 30.792C14.8049 31.72 15.7809 32.184 17.0289 32.184C18.2769 32.184 19.5729 31.656 20.9169 30.6C22.2609 29.512 23.3969 27.656 24.3249 25.032C25.2849 22.376 25.7649 18.888 25.7649 14.568V31.656H22.7889C21.8289 33.8 20.4529 35.48 18.6609 36.696C16.9009 37.912 14.9329 38.52 12.7569 38.52ZM38.636 40.2C36.844 40.2 35.26 39.736 33.884 38.808C32.54 37.88 31.5 36.568 30.764 34.872C30.028 33.144 29.66 31.16 29.66 28.92C29.66 25.24 30.46 21.992 32.06 19.176C33.692 16.328 35.948 14.12 38.828 12.552C41.74 10.984 45.068 10.2 48.812 10.2C50.156 10.2 51.42 10.328 52.604 10.584C52.988 11.448 53.18 12.776 53.18 14.568C50.652 14.568 48.316 15.144 46.172 16.296C44.028 17.416 42.316 18.936 41.036 20.856C39.788 22.744 39.164 24.808 39.164 27.048C39.164 28.616 39.484 29.832 40.124 30.696C40.796 31.528 41.724 31.944 42.908 31.944C45.276 31.944 47.164 30.536 48.572 27.72C49.98 24.904 50.988 20.52 51.596 14.568C52.46 13.48 53.404 12.68 54.428 12.168C55.452 11.656 56.604 11.4 57.884 11.4C59.004 11.4 59.868 11.736 60.476 12.408C61.084 13.048 61.388 13.976 61.388 15.192C61.388 15.832 61.276 16.76 61.052 17.976C60.828 19.192 60.556 20.472 60.236 21.816C59.628 24.408 59.164 26.616 58.844 28.44C58.524 30.232 58.364 31.912 58.364 33.48C58.364 35.56 58.86 37.016 59.852 37.848C57.9 39.416 55.836 40.2 53.66 40.2C52.028 40.2 50.764 39.736 49.868 38.808C49.004 37.848 48.572 36.52 48.572 34.824C48.572 34.28 48.62 33.704 48.716 33.096L48.236 32.856C47.34 35.16 46.028 36.968 44.3 38.28C42.604 39.56 40.716 40.2 38.636 40.2ZM67.4885 40.2C65.1845 40.2 63.3445 39.864 61.9685 39.192C60.6245 38.52 59.6645 37.544 59.0885 36.264C58.5125 34.952 58.2245 33.304 58.2245 31.32C58.2245 30.04 58.4485 27.928 58.8965 24.984C59.3445 22.04 60.2245 16.776 61.5365 9.192L58.8485 5.352C60.2885 4.296 61.7925 3.448 63.3605 2.808C64.9285 2.168 66.4165 1.848 67.8245 1.848C69.3285 1.848 70.3845 2.12 70.9925 2.664C71.6005 3.176 71.9045 4.04 71.9045 5.256C71.9045 6.088 71.7765 7.112 71.5205 8.328C71.2965 9.544 70.9285 11.24 70.4165 13.416C69.6805 16.616 69.3765 17.912 69.5045 17.304L69.9845 17.544C70.8805 15.24 72.1765 13.448 73.8725 12.168C75.6005 10.856 77.5045 10.2 79.5845 10.2C81.3765 10.2 82.9445 10.664 84.2885 11.592C85.6645 12.52 86.7205 13.848 87.4565 15.576C88.1925 17.272 88.5605 19.24 88.5605 21.48C88.5605 25.16 87.6805 28.424 85.9205 31.272C84.1605 34.088 81.6805 36.28 78.4805 37.848C75.2805 39.416 71.6165 40.2 67.4885 40.2ZM66.6245 35.256C68.9285 35.032 71.0245 34.36 72.9125 33.24C74.8005 32.12 76.2885 30.696 77.3765 28.968C78.4965 27.208 79.0565 25.336 79.0565 23.352C79.0565 21.784 78.7205 20.584 78.0485 19.752C77.4085 18.888 76.4965 18.456 75.3125 18.456C73.7445 18.456 72.2885 19.16 70.9445 20.568C69.6325 21.944 68.5765 23.912 67.7765 26.472C67.0085 29 66.6245 31.928 66.6245 35.256ZM94.3685 40.2C92.0645 40.2 90.2245 39.864 88.8485 39.192C87.5045 38.52 86.5445 37.544 85.9685 36.264C85.3925 34.952 85.1045 33.304 85.1045 31.32C85.1045 30.04 85.3285 27.928 85.7765 24.984C86.2245 22.04 87.1045 16.776 88.4165 9.192L85.7285 5.352C87.1685 4.296 88.6725 3.448 90.2405 2.808C91.8085 2.168 93.2965 1.848 94.7045 1.848C96.2085 1.848 97.2645 2.12 97.8725 2.664C98.4805 3.176 98.7845 4.04 98.7845 5.256C98.7845 6.088 98.6565 7.112 98.4005 8.328C98.1765 9.544 97.8085 11.24 97.2965 13.416C96.5605 16.616 96.2565 17.912 96.3845 17.304L96.8645 17.544C97.7605 15.24 99.0565 13.448 100.753 12.168C102.481 10.856 104.385 10.2 106.465 10.2C108.257 10.2 109.825 10.664 111.169 11.592C112.545 12.52 113.601 13.848 114.337 15.576C115.073 17.272 115.441 19.24 115.441 21.48C115.441 25.16 114.561 28.424 112.801 31.272C111.041 34.088 108.561 36.28 105.361 37.848C102.161 39.416 98.4965 40.2 94.3685 40.2ZM93.5045 35.256C95.8085 35.032 97.9045 34.36 99.7925 33.24C101.681 32.12 103.169 30.696 104.257 28.968C105.377 27.208 105.937 25.336 105.937 23.352C105.937 21.784 105.601 20.584 104.929 19.752C104.289 18.888 103.377 18.456 102.193 18.456C100.625 18.456 99.1685 19.16 97.8245 20.568C96.5125 21.944 95.4565 23.912 94.6565 26.472C93.8885 29 93.5045 31.928 93.5045 35.256ZM113.473 48.6C110.753 48.6 108.689 48.12 107.281 47.16C105.841 46.2 105.121 44.808 105.121 42.984C105.121 42.088 105.361 41.208 105.841 40.344C106.321 39.48 106.865 38.824 107.473 38.376C108.017 39.272 108.785 40.008 109.777 40.584C110.769 41.16 112.033 41.448 113.569 41.448C116.001 41.448 118.625 40.36 121.441 38.184C124.257 36.008 126.641 32.92 128.593 28.92C130.545 24.888 131.521 20.264 131.521 15.048C131.521 14.152 131.441 13.224 131.281 12.264C131.921 11.656 132.737 11.16 133.729 10.776C134.753 10.392 135.713 10.2 136.609 10.2C139.713 10.2 141.265 11.608 141.265 14.424C141.265 18.232 140.081 22.872 137.713 28.344C135.345 33.816 132.049 38.552 127.825 42.552C123.601 46.584 118.817 48.6 113.473 48.6ZM121.825 40.2C119.073 40.2 117.041 39.496 115.729 38.088C114.449 36.648 113.649 34.904 113.329 32.856C113.041 30.808 112.897 28.088 112.897 24.696C112.865 22.392 112.801 20.552 112.705 19.176C112.641 17.8 112.417 16.488 112.033 15.24C111.649 13.992 111.041 13 110.209 12.264C111.905 10.888 113.809 10.2 115.921 10.2C118.001 10.2 119.505 10.856 120.433 12.168C121.393 13.48 121.969 15.08 122.161 16.968C122.353 18.856 122.433 21.352 122.401 24.456C122.369 27.144 122.417 29.288 122.545 30.888C122.673 32.456 123.073 33.768 123.745 34.824C124.417 35.88 125.473 36.408 126.913 36.408L121.825 40.2ZM136.89 18.552C138.394 17.848 139.61 16.792 140.538 15.384C141.498 13.944 141.978 12.6 141.978 11.352L138.618 7.032C138.65 6.008 138.954 5.064 139.53 4.2C140.106 3.304 140.858 2.6 141.786 2.088C142.746 1.544 143.754 1.272 144.81 1.272C146.378 1.272 147.626 1.816 148.554 2.904C149.482 3.992 149.946 5.288 149.946 6.792C149.946 8.968 149.434 11.016 148.41 12.936C147.418 14.856 145.994 16.504 144.138 17.88C142.282 19.224 140.106 20.152 137.61 20.664L136.89 18.552ZM154.394 40.2C150.202 40.2 147.162 39.672 145.274 38.616C143.386 37.528 142.442 36.072 142.442 34.248C142.442 33.416 142.682 32.552 143.162 31.656C143.642 30.76 144.314 29.992 145.178 29.352C146.042 30.92 147.194 32.152 148.634 33.048C150.074 33.912 151.818 34.344 153.866 34.344C154.922 34.344 156.01 34.104 157.13 33.624C158.25 33.112 158.81 32.392 158.81 31.464C158.81 30.888 158.442 30.424 157.706 30.072C156.97 29.72 155.738 29.272 154.01 28.728C151.994 28.12 150.314 27.528 148.97 26.952C147.626 26.344 146.458 25.496 145.466 24.408C144.474 23.288 143.978 21.864 143.978 20.136C143.978 17.864 144.666 15.992 146.042 14.52C147.45 13.016 149.306 11.928 151.61 11.256C153.946 10.552 156.522 10.2 159.338 10.2C162.698 10.2 165.354 10.728 167.306 11.784C169.258 12.808 170.234 14.168 170.234 15.864C170.234 17.304 169.722 18.44 168.698 19.272C167.674 20.104 166.442 20.52 165.002 20.52C163.658 20.52 162.41 20.104 161.258 19.272C160.106 18.44 159.194 17.224 158.522 15.624C157.178 15.752 156.026 16.12 155.066 16.728C154.106 17.336 153.626 18.088 153.626 18.984C153.626 19.496 153.834 19.944 154.25 20.328C154.698 20.68 155.242 20.984 155.882 21.24C156.554 21.464 157.514 21.768 158.762 22.152C160.746 22.76 162.378 23.352 163.658 23.928C164.97 24.504 166.09 25.352 167.018 26.472C167.978 27.592 168.458 29.048 168.458 30.84C168.458 32.984 167.722 34.76 166.25 36.168C164.778 37.576 162.954 38.6 160.778 39.24C158.634 39.88 156.506 40.2 154.394 40.2Z"/>
</mask>
<g filter="url(#filter0_i_6_12)">
<path d="M11.2209 50.424C8.18088 50.424 5.84488 49.944 4.21288 48.984C2.58088 48.056 1.76488 46.712 1.76488 44.952C1.76488 43.896 2.05288 42.872 2.62888 41.88C3.17288 40.92 3.87688 40.2 4.74088 39.72C5.47688 40.904 6.45288 41.784 7.66888 42.36C8.91688 42.968 10.2929 43.272 11.7969 43.272C14.3249 43.272 16.6609 42.408 18.8049 40.68C20.9489 38.984 22.6769 36.008 23.9889 31.752C25.3329 27.496 25.9249 21.768 25.7649 14.568C26.6609 13.48 27.6209 12.68 28.6449 12.168C29.6689 11.624 30.8369 11.352 32.1489 11.352C33.2689 11.352 34.1169 11.64 34.6929 12.216C35.2689 12.792 35.5569 13.64 35.5569 14.76C35.5569 20.84 34.7409 26.584 33.1089 31.992C31.4769 37.368 28.8369 41.784 25.1889 45.24C21.5409 48.696 16.8849 50.424 11.2209 50.424ZM12.7569 38.52C10.9329 38.52 9.31688 38.072 7.90888 37.176C6.53288 36.28 5.46088 35.016 4.69288 33.384C3.92488 31.752 3.54088 29.864 3.54088 27.72C3.54088 24.296 4.35688 21.256 5.98888 18.6C7.62088 15.944 9.89288 13.88 12.8049 12.408C15.7489 10.936 19.1249 10.2 22.9329 10.2C24.2769 10.2 25.5409 10.328 26.7249 10.584C27.1089 11.64 27.3009 12.968 27.3009 14.568C24.7409 14.568 22.3569 15.128 20.1489 16.248C17.9729 17.336 16.2449 18.824 14.9649 20.712C13.6849 22.568 13.0449 24.6 13.0449 26.808C13.0449 28.504 13.3969 29.832 14.1009 30.792C14.8049 31.72 15.7809 32.184 17.0289 32.184C18.2769 32.184 19.5729 31.656 20.9169 30.6C22.2609 29.512 23.3969 27.656 24.3249 25.032C25.2849 22.376 25.7649 18.888 25.7649 14.568V31.656H22.7889C21.8289 33.8 20.4529 35.48 18.6609 36.696C16.9009 37.912 14.9329 38.52 12.7569 38.52ZM38.636 40.2C36.844 40.2 35.26 39.736 33.884 38.808C32.54 37.88 31.5 36.568 30.764 34.872C30.028 33.144 29.66 31.16 29.66 28.92C29.66 25.24 30.46 21.992 32.06 19.176C33.692 16.328 35.948 14.12 38.828 12.552C41.74 10.984 45.068 10.2 48.812 10.2C50.156 10.2 51.42 10.328 52.604 10.584C52.988 11.448 53.18 12.776 53.18 14.568C50.652 14.568 48.316 15.144 46.172 16.296C44.028 17.416 42.316 18.936 41.036 20.856C39.788 22.744 39.164 24.808 39.164 27.048C39.164 28.616 39.484 29.832 40.124 30.696C40.796 31.528 41.724 31.944 42.908 31.944C45.276 31.944 47.164 30.536 48.572 27.72C49.98 24.904 50.988 20.52 51.596 14.568C52.46 13.48 53.404 12.68 54.428 12.168C55.452 11.656 56.604 11.4 57.884 11.4C59.004 11.4 59.868 11.736 60.476 12.408C61.084 13.048 61.388 13.976 61.388 15.192C61.388 15.832 61.276 16.76 61.052 17.976C60.828 19.192 60.556 20.472 60.236 21.816C59.628 24.408 59.164 26.616 58.844 28.44C58.524 30.232 58.364 31.912 58.364 33.48C58.364 35.56 58.86 37.016 59.852 37.848C57.9 39.416 55.836 40.2 53.66 40.2C52.028 40.2 50.764 39.736 49.868 38.808C49.004 37.848 48.572 36.52 48.572 34.824C48.572 34.28 48.62 33.704 48.716 33.096L48.236 32.856C47.34 35.16 46.028 36.968 44.3 38.28C42.604 39.56 40.716 40.2 38.636 40.2ZM67.4885 40.2C65.1845 40.2 63.3445 39.864 61.9685 39.192C60.6245 38.52 59.6645 37.544 59.0885 36.264C58.5125 34.952 58.2245 33.304 58.2245 31.32C58.2245 30.04 58.4485 27.928 58.8965 24.984C59.3445 22.04 60.2245 16.776 61.5365 9.192L58.8485 5.352C60.2885 4.296 61.7925 3.448 63.3605 2.808C64.9285 2.168 66.4165 1.848 67.8245 1.848C69.3285 1.848 70.3845 2.12 70.9925 2.664C71.6005 3.176 71.9045 4.04 71.9045 5.256C71.9045 6.088 71.7765 7.112 71.5205 8.328C71.2965 9.544 70.9285 11.24 70.4165 13.416C69.6805 16.616 69.3765 17.912 69.5045 17.304L69.9845 17.544C70.8805 15.24 72.1765 13.448 73.8725 12.168C75.6005 10.856 77.5045 10.2 79.5845 10.2C81.3765 10.2 82.9445 10.664 84.2885 11.592C85.6645 12.52 86.7205 13.848 87.4565 15.576C88.1925 17.272 88.5605 19.24 88.5605 21.48C88.5605 25.16 87.6805 28.424 85.9205 31.272C84.1605 34.088 81.6805 36.28 78.4805 37.848C75.2805 39.416 71.6165 40.2 67.4885 40.2ZM66.6245 35.256C68.9285 35.032 71.0245 34.36 72.9125 33.24C74.8005 32.12 76.2885 30.696 77.3765 28.968C78.4965 27.208 79.0565 25.336 79.0565 23.352C79.0565 21.784 78.7205 20.584 78.0485 19.752C77.4085 18.888 76.4965 18.456 75.3125 18.456C73.7445 18.456 72.2885 19.16 70.9445 20.568C69.6325 21.944 68.5765 23.912 67.7765 26.472C67.0085 29 66.6245 31.928 66.6245 35.256ZM94.3685 40.2C92.0645 40.2 90.2245 39.864 88.8485 39.192C87.5045 38.52 86.5445 37.544 85.9685 36.264C85.3925 34.952 85.1045 33.304 85.1045 31.32C85.1045 30.04 85.3285 27.928 85.7765 24.984C86.2245 22.04 87.1045 16.776 88.4165 9.192L85.7285 5.352C87.1685 4.296 88.6725 3.448 90.2405 2.808C91.8085 2.168 93.2965 1.848 94.7045 1.848C96.2085 1.848 97.2645 2.12 97.8725 2.664C98.4805 3.176 98.7845 4.04 98.7845 5.256C98.7845 6.088 98.6565 7.112 98.4005 8.328C98.1765 9.544 97.8085 11.24 97.2965 13.416C96.5605 16.616 96.2565 17.912 96.3845 17.304L96.8645 17.544C97.7605 15.24 99.0565 13.448 100.753 12.168C102.481 10.856 104.385 10.2 106.465 10.2C108.257 10.2 109.825 10.664 111.169 11.592C112.545 12.52 113.601 13.848 114.337 15.576C115.073 17.272 115.441 19.24 115.441 21.48C115.441 25.16 114.561 28.424 112.801 31.272C111.041 34.088 108.561 36.28 105.361 37.848C102.161 39.416 98.4965 40.2 94.3685 40.2ZM93.5045 35.256C95.8085 35.032 97.9045 34.36 99.7925 33.24C101.681 32.12 103.169 30.696 104.257 28.968C105.377 27.208 105.937 25.336 105.937 23.352C105.937 21.784 105.601 20.584 104.929 19.752C104.289 18.888 103.377 18.456 102.193 18.456C100.625 18.456 99.1685 19.16 97.8245 20.568C96.5125 21.944 95.4565 23.912 94.6565 26.472C93.8885 29 93.5045 31.928 93.5045 35.256ZM113.473 48.6C110.753 48.6 108.689 48.12 107.281 47.16C105.841 46.2 105.121 44.808 105.121 42.984C105.121 42.088 105.361 41.208 105.841 40.344C106.321 39.48 106.865 38.824 107.473 38.376C108.017 39.272 108.785 40.008 109.777 40.584C110.769 41.16 112.033 41.448 113.569 41.448C116.001 41.448 118.625 40.36 121.441 38.184C124.257 36.008 126.641 32.92 128.593 28.92C130.545 24.888 131.521 20.264 131.521 15.048C131.521 14.152 131.441 13.224 131.281 12.264C131.921 11.656 132.737 11.16 133.729 10.776C134.753 10.392 135.713 10.2 136.609 10.2C139.713 10.2 141.265 11.608 141.265 14.424C141.265 18.232 140.081 22.872 137.713 28.344C135.345 33.816 132.049 38.552 127.825 42.552C123.601 46.584 118.817 48.6 113.473 48.6ZM121.825 40.2C119.073 40.2 117.041 39.496 115.729 38.088C114.449 36.648 113.649 34.904 113.329 32.856C113.041 30.808 112.897 28.088 112.897 24.696C112.865 22.392 112.801 20.552 112.705 19.176C112.641 17.8 112.417 16.488 112.033 15.24C111.649 13.992 111.041 13 110.209 12.264C111.905 10.888 113.809 10.2 115.921 10.2C118.001 10.2 119.505 10.856 120.433 12.168C121.393 13.48 121.969 15.08 122.161 16.968C122.353 18.856 122.433 21.352 122.401 24.456C122.369 27.144 122.417 29.288 122.545 30.888C122.673 32.456 123.073 33.768 123.745 34.824C124.417 35.88 125.473 36.408 126.913 36.408L121.825 40.2ZM136.89 18.552C138.394 17.848 139.61 16.792 140.538 15.384C141.498 13.944 141.978 12.6 141.978 11.352L138.618 7.032C138.65 6.008 138.954 5.064 139.53 4.2C140.106 3.304 140.858 2.6 141.786 2.088C142.746 1.544 143.754 1.272 144.81 1.272C146.378 1.272 147.626 1.816 148.554 2.904C149.482 3.992 149.946 5.288 149.946 6.792C149.946 8.968 149.434 11.016 148.41 12.936C147.418 14.856 145.994 16.504 144.138 17.88C142.282 19.224 140.106 20.152 137.61 20.664L136.89 18.552ZM154.394 40.2C150.202 40.2 147.162 39.672 145.274 38.616C143.386 37.528 142.442 36.072 142.442 34.248C142.442 33.416 142.682 32.552 143.162 31.656C143.642 30.76 144.314 29.992 145.178 29.352C146.042 30.92 147.194 32.152 148.634 33.048C150.074 33.912 151.818 34.344 153.866 34.344C154.922 34.344 156.01 34.104 157.13 33.624C158.25 33.112 158.81 32.392 158.81 31.464C158.81 30.888 158.442 30.424 157.706 30.072C156.97 29.72 155.738 29.272 154.01 28.728C151.994 28.12 150.314 27.528 148.97 26.952C147.626 26.344 146.458 25.496 145.466 24.408C144.474 23.288 143.978 21.864 143.978 20.136C143.978 17.864 144.666 15.992 146.042 14.52C147.45 13.016 149.306 11.928 151.61 11.256C153.946 10.552 156.522 10.2 159.338 10.2C162.698 10.2 165.354 10.728 167.306 11.784C169.258 12.808 170.234 14.168 170.234 15.864C170.234 17.304 169.722 18.44 168.698 19.272C167.674 20.104 166.442 20.52 165.002 20.52C163.658 20.52 162.41 20.104 161.258 19.272C160.106 18.44 159.194 17.224 158.522 15.624C157.178 15.752 156.026 16.12 155.066 16.728C154.106 17.336 153.626 18.088 153.626 18.984C153.626 19.496 153.834 19.944 154.25 20.328C154.698 20.68 155.242 20.984 155.882 21.24C156.554 21.464 157.514 21.768 158.762 22.152C160.746 22.76 162.378 23.352 163.658 23.928C164.97 24.504 166.09 25.352 167.018 26.472C167.978 27.592 168.458 29.048 168.458 30.84C168.458 32.984 167.722 34.76 166.25 36.168C164.778 37.576 162.954 38.6 160.778 39.24C158.634 39.88 156.506 40.2 154.394 40.2Z" fill="#6E5B5B"/>
</g>
<path d="M4.21288 48.984L4.71989 48.1221L4.71356 48.1183L4.70718 48.1147L4.21288 48.984ZM2.62888 41.88L3.49371 42.3822L3.4989 42.373L2.62888 41.88ZM4.74088 39.72L5.59016 39.1921L5.08752 38.3835L4.25523 38.8458L4.74088 39.72ZM7.66888 42.36L8.10687 41.461L8.09696 41.4563L7.66888 42.36ZM18.8049 40.68L18.1844 39.8957L18.1773 39.9014L18.8049 40.68ZM23.9889 31.752L23.0353 31.4509L23.0333 31.4574L23.9889 31.752ZM25.7649 14.568L24.9929 13.9323L24.7569 14.219L24.7651 14.5902L25.7649 14.568ZM28.6449 12.168L29.0921 13.0624L29.1031 13.0569L29.114 13.0511L28.6449 12.168ZM34.6929 12.216L33.9858 12.9231V12.9231L34.6929 12.216ZM33.1089 31.992L34.0658 32.2825L34.0662 32.2809L33.1089 31.992ZM25.1889 45.24L25.8766 45.966L25.1889 45.24ZM7.90887 37.176L7.36317 38.014L7.372 38.0197L7.90887 37.176ZM4.69287 33.384L5.59769 32.9582L4.69287 33.384ZM5.98888 18.6L6.84089 19.1235L5.98888 18.6ZM12.8049 12.408L12.3577 11.5136L12.3537 11.5155L12.8049 12.408ZM26.7249 10.584L27.6647 10.2423L27.476 9.72329L26.9362 9.60659L26.7249 10.584ZM27.3009 14.568V15.568H28.3009V14.568H27.3009ZM20.1489 16.248L20.5961 17.1424L20.6012 17.1398L20.1489 16.248ZM14.9649 20.712L15.7881 21.2798L15.7926 21.2732L14.9649 20.712ZM14.1009 30.792L13.2945 31.3834L13.2993 31.3899L13.3042 31.3964L14.1009 30.792ZM20.9169 30.6L21.5347 31.3863L21.5404 31.3818L21.5461 31.3772L20.9169 30.6ZM24.3249 25.032L23.3844 24.6921L23.3821 24.6986L24.3249 25.032ZM25.7649 31.656V32.656H26.7649V31.656H25.7649ZM22.7889 31.656V30.656H22.141L21.8762 31.2473L22.7889 31.656ZM18.6609 36.696L18.0994 35.8685L18.0924 35.8733L18.6609 36.696ZM11.2209 49.424C8.26175 49.424 6.13172 48.9526 4.71989 48.1221L3.70586 49.8459C5.55803 50.9354 8.1 51.424 11.2209 51.424V49.424ZM4.70718 48.1147C3.36221 47.3499 2.76488 46.3239 2.76488 44.952H0.764877C0.764877 47.1001 1.79954 48.7621 3.71857 49.8533L4.70718 48.1147ZM2.76488 44.952C2.76488 44.0874 2.99835 43.2352 3.49366 42.3821L1.76409 41.3779C1.1074 42.5088 0.764877 43.7046 0.764877 44.952H2.76488ZM3.4989 42.373C3.9631 41.5538 4.54145 40.9747 5.22652 40.5942L4.25523 38.8458C3.2123 39.4252 2.38266 40.2862 1.75885 41.387L3.4989 42.373ZM3.89159 40.2479C4.72512 41.5888 5.84472 42.6024 7.24079 43.2637L8.09696 41.4563C7.06104 40.9656 6.22863 40.2192 5.59016 39.1921L3.89159 40.2479ZM7.23091 43.259C8.62647 43.9389 10.154 44.272 11.7969 44.272V42.272C10.4318 42.272 9.20728 41.9971 8.10685 41.461L7.23091 43.259ZM11.7969 44.272C14.5741 44.272 17.1276 43.3162 19.4324 41.4586L18.1773 39.9014C16.1942 41.4998 14.0757 42.272 11.7969 42.272V44.272ZM19.4253 41.4643C21.7995 39.5862 23.607 36.3852 24.9445 32.0466L23.0333 31.4574C21.7467 35.6308 20.0983 38.3818 18.1845 39.8957L19.4253 41.4643ZM24.9425 32.0531C26.3334 27.6484 26.9258 21.7967 26.7646 14.5458L24.7651 14.5902C24.924 21.7393 24.3323 27.3436 23.0353 31.4509L24.9425 32.0531ZM26.5368 15.2037C27.3639 14.1994 28.2186 13.4991 29.0921 13.0624L28.1977 11.2736C27.0231 11.8608 25.9579 12.7606 24.9929 13.9323L26.5368 15.2037ZM29.114 13.0511C29.9755 12.5935 30.9787 12.352 32.1489 12.352V10.352C30.6951 10.352 29.3623 10.6545 28.1757 11.2849L29.114 13.0511ZM32.1489 12.352C33.1053 12.352 33.6586 12.596 33.9858 12.9231L35.4 11.5089C34.5751 10.684 33.4325 10.352 32.1489 10.352V12.352ZM33.9858 12.9231C34.3129 13.2502 34.5569 13.8036 34.5569 14.76H36.5569C36.5569 13.4764 36.2249 12.3338 35.4 11.5089L33.9858 12.9231ZM34.5569 14.76C34.5569 20.7496 33.7532 26.3957 32.1515 31.7031L34.0662 32.2809C35.7286 26.7723 36.5569 20.9304 36.5569 14.76H34.5569ZM32.152 31.7015C30.5643 36.9315 28.0088 41.191 24.5011 44.514L25.8766 45.966C29.665 42.377 32.3894 37.8045 34.0658 32.2825L32.152 31.7015ZM24.5011 44.514C21.0629 47.7713 16.6642 49.424 11.2209 49.424V51.424C17.1055 51.424 22.0188 49.6207 25.8766 45.966L24.5011 44.514ZM12.7569 37.52C11.1047 37.52 9.67849 37.1168 8.44575 36.3323L7.372 38.0197C8.95526 39.0272 10.761 39.52 12.7569 39.52V37.52ZM8.45455 36.338C7.24935 35.5532 6.29464 34.4392 5.59769 32.9582L3.78806 33.8098C4.62711 35.5928 5.8164 37.0068 7.3632 38.014L8.45455 36.338ZM5.59769 32.9582C4.9031 31.4822 4.54087 29.7443 4.54087 27.72H2.54087C2.54087 29.9837 2.94665 32.0218 3.78806 33.8098L5.59769 32.9582ZM4.54087 27.72C4.54087 24.462 5.31504 21.6068 6.84089 19.1235L5.13686 18.0765C3.39872 20.9052 2.54087 24.13 2.54087 27.72H4.54087ZM6.84089 19.1235C8.37135 16.6328 10.5011 14.693 13.256 13.3005L12.3537 11.5155C9.28463 13.067 6.8704 15.2552 5.13686 18.0765L6.84089 19.1235ZM13.2521 13.3024C16.037 11.91 19.2557 11.2 22.9329 11.2V9.2C18.994 9.2 15.4608 9.96201 12.3577 11.5136L13.2521 13.3024ZM22.9329 11.2C24.2135 11.2 25.4061 11.322 26.5135 11.5614L26.9362 9.60659C25.6757 9.33404 24.3403 9.2 22.9329 9.2V11.2ZM25.7851 10.9257C26.1162 11.8364 26.3009 13.0392 26.3009 14.568H28.3009C28.3009 12.8968 28.1015 11.4436 27.6647 10.2423L25.7851 10.9257ZM27.3009 13.568C24.5892 13.568 22.0495 14.1626 19.6965 15.3562L20.6012 17.1398C22.6642 16.0934 24.8925 15.568 27.3009 15.568V13.568ZM19.7017 15.3536C17.3829 16.5129 15.5198 18.1115 14.1372 20.1508L15.7926 21.2732C16.97 19.5365 18.5628 18.159 20.5961 17.1424L19.7017 15.3536ZM14.1417 20.1443C12.7491 22.1635 12.0449 24.3927 12.0449 26.808H14.0449C14.0449 24.8073 14.6206 22.9725 15.7881 21.2797L14.1417 20.1443ZM12.0449 26.808C12.0449 28.6294 12.4214 30.1928 13.2945 31.3834L14.9073 30.2006C14.3724 29.4712 14.0449 28.3786 14.0449 26.808H12.0449ZM13.3042 31.3964C14.2124 32.5936 15.494 33.184 17.0289 33.184V31.184C16.0678 31.184 15.3974 30.8464 14.8976 30.1876L13.3042 31.3964ZM17.0289 33.184C18.571 33.184 20.0789 32.5301 21.5347 31.3863L20.2991 29.8137C19.0668 30.7819 17.9827 31.184 17.0289 31.184V33.184ZM21.5461 31.3772C23.0962 30.1224 24.312 28.0675 25.2677 25.3654L23.3821 24.6986C22.4817 27.2445 21.4256 28.9016 20.2877 29.8228L21.5461 31.3772ZM25.2653 25.3719C26.2798 22.5651 26.7649 18.9491 26.7649 14.568H24.7649C24.7649 18.8269 24.2899 22.1869 23.3844 24.6921L25.2653 25.3719ZM24.7649 14.568V31.656H26.7649V14.568H24.7649ZM25.7649 30.656H22.7889V32.656H25.7649V30.656ZM21.8762 31.2473C20.9854 33.2367 19.7247 34.7656 18.0994 35.8685L19.2224 37.5235C21.181 36.1944 22.6723 34.3633 23.7016 32.0647L21.8762 31.2473ZM18.0924 35.8733C16.5026 36.9717 14.7335 37.52 12.7569 37.52V39.52C15.1322 39.52 17.2992 38.8523 19.2293 37.5187L18.0924 35.8733ZM33.884 38.808L33.3158 39.6309L33.3249 39.6371L33.884 38.808ZM30.764 34.872L29.844 35.2639L29.8467 35.2701L30.764 34.872ZM32.06 19.176L31.1924 18.6788L31.1905 18.682L32.06 19.176ZM38.828 12.552L38.3539 11.6715L38.3498 11.6737L38.828 12.552ZM52.604 10.584L53.5178 10.1779L53.3116 9.71389L52.8153 9.60659L52.604 10.584ZM53.18 14.568V15.568H54.18V14.568H53.18ZM46.172 16.296L46.635 17.1824L46.6453 17.1769L46.172 16.296ZM41.036 20.856L40.2039 20.3013L40.2018 20.3046L41.036 20.856ZM40.124 30.696L39.3204 31.2912L39.3329 31.308L39.3461 31.3243L40.124 30.696ZM48.572 27.72L47.6776 27.2728L48.572 27.72ZM51.596 14.568L50.8129 13.9461L50.6309 14.1753L50.6012 14.4664L51.596 14.568ZM54.428 12.168L54.8752 13.0624H54.8752L54.428 12.168ZM60.476 12.408L59.7345 13.0789L59.7426 13.0879L59.751 13.0967L60.476 12.408ZM61.052 17.976L60.0686 17.7948V17.7948L61.052 17.976ZM60.236 21.816L59.2632 21.5844L59.2624 21.5876L60.236 21.816ZM58.844 28.44L59.8284 28.6158L59.829 28.6128L58.844 28.44ZM59.852 37.848L60.4783 38.6276L61.428 37.8647L60.4946 37.0818L59.852 37.848ZM49.868 38.808L49.1247 39.477L49.1364 39.49L49.1486 39.5026L49.868 38.808ZM48.716 33.096L49.7038 33.252L49.8179 32.5289L49.1632 32.2016L48.716 33.096ZM48.236 32.856L48.6832 31.9616L47.7017 31.4708L47.304 32.4936L48.236 32.856ZM44.3 38.28L44.9024 39.0782L44.9047 39.0764L44.3 38.28ZM38.636 39.2C37.0266 39.2 35.6407 38.7866 34.4431 37.9789L33.3249 39.6371C34.8793 40.6854 36.6614 41.2 38.636 41.2V39.2ZM34.4522 37.9851C33.2816 37.1768 32.353 36.0217 31.6813 34.4739L29.8467 35.2701C30.647 37.1143 31.7984 38.5832 33.3158 39.6309L34.4522 37.9851ZM31.684 34.4801C31.0099 32.8975 30.66 31.0508 30.66 28.92H28.66C28.66 31.2692 29.0461 33.3905 29.844 35.2639L31.684 34.4801ZM30.66 28.92C30.66 25.3892 31.4261 22.3159 32.9295 19.67L31.1905 18.682C29.4939 21.6681 28.66 25.0908 28.66 28.92H30.66ZM32.9276 19.6732C34.4677 16.9856 36.5889 14.9096 39.3062 13.4303L38.3498 11.6737C35.3071 13.3303 32.9163 15.6703 31.1924 18.6788L32.9276 19.6732ZM39.3021 13.4325C42.0501 11.9528 45.2114 11.2 48.812 11.2V9.2C44.9246 9.2 41.4299 10.0152 38.3539 11.6715L39.3021 13.4325ZM48.812 11.2C50.0926 11.2 51.2852 11.322 52.3927 11.5614L52.8153 9.60659C51.5548 9.33404 50.2194 9.2 48.812 9.2V11.2ZM51.6902 10.9901C51.9867 11.6573 52.18 12.8129 52.18 14.568H54.18C54.18 12.7391 53.9893 11.2387 53.5178 10.1779L51.6902 10.9901ZM53.18 13.568C50.4934 13.568 47.9939 14.1818 45.6987 15.4151L46.6453 17.1769C48.6381 16.1062 50.8106 15.568 53.18 15.568V13.568ZM45.709 15.4096C43.4235 16.6036 41.5817 18.2347 40.2039 20.3013L41.868 21.4107C43.0503 19.6373 44.6325 18.2284 46.635 17.1823L45.709 15.4096ZM40.2018 20.3046C38.8468 22.3543 38.164 24.6098 38.164 27.048H40.164C40.164 25.0062 40.7292 23.1337 41.8702 21.4074L40.2018 20.3046ZM38.164 27.048C38.164 28.7361 38.5063 30.1922 39.3204 31.2912L40.9276 30.1008C40.4617 29.4718 40.164 28.4959 40.164 27.048H38.164ZM39.3461 31.3243C40.2299 32.4186 41.4586 32.944 42.908 32.944V30.944C41.9894 30.944 41.3621 30.6374 40.9019 30.0677L39.3461 31.3243ZM42.908 32.944C45.7817 32.944 47.9544 31.1913 49.4664 28.1672L47.6776 27.2728C46.3736 29.8807 44.7703 30.944 42.908 30.944V32.944ZM49.4664 28.1672C50.9576 25.185 51.9796 20.6536 52.5908 14.6696L50.6012 14.4664C49.9965 20.3864 49.0024 24.623 47.6776 27.2728L49.4664 28.1672ZM52.3791 15.1899C53.1714 14.1922 54.0066 13.4968 54.8752 13.0624L53.9808 11.2736C52.8014 11.8632 51.7486 12.7678 50.8129 13.9461L52.3791 15.1899ZM54.8752 13.0624C55.7447 12.6277 56.7407 12.4 57.884 12.4V10.4C56.4673 10.4 55.1593 10.6843 53.9808 11.2736L54.8752 13.0624ZM57.884 12.4C58.7933 12.4 59.3594 12.6644 59.7345 13.0789L61.2175 11.7371C60.3766 10.8076 59.2148 10.4 57.884 10.4V12.4ZM59.751 13.0967C60.1248 13.4903 60.388 14.1343 60.388 15.192H62.388C62.388 13.8177 62.0432 12.6057 61.201 11.7192L59.751 13.0967ZM60.388 15.192C60.388 15.7386 60.2897 16.5943 60.0686 17.7948L62.0355 18.1572C62.2623 16.9257 62.388 15.9254 62.388 15.192H60.388ZM60.0686 17.7948C59.848 18.9921 59.5797 20.2552 59.2632 21.5844L61.2088 22.0476C61.5323 20.6888 61.808 19.3919 62.0355 18.1572L60.0686 17.7948ZM59.2624 21.5876C58.6518 24.1908 58.1834 26.4185 57.859 28.2672L59.829 28.6128C60.1446 26.8135 60.6042 24.6252 61.2096 22.0444L59.2624 21.5876ZM57.8596 28.2642C57.5308 30.1052 57.364 31.8446 57.364 33.48H59.364C59.364 31.9794 59.5172 30.3588 59.8284 28.6158L57.8596 28.2642ZM57.364 33.48C57.364 35.6785 57.8833 37.502 59.2094 38.6142L60.4946 37.0818C59.8367 36.53 59.364 35.4415 59.364 33.48H57.364ZM59.2258 37.0684C57.4232 38.5163 55.5746 39.2 53.66 39.2V41.2C56.0974 41.2 58.3768 40.3157 60.4783 38.6276L59.2258 37.0684ZM53.66 39.2C52.2232 39.2 51.2479 38.7975 50.5874 38.1134L49.1486 39.5026C50.2801 40.6745 51.8328 41.2 53.66 41.2V39.2ZM50.6113 38.139C49.9588 37.414 49.572 36.3521 49.572 34.824H47.572C47.572 36.6879 48.0492 38.282 49.1247 39.477L50.6113 38.139ZM49.572 34.824C49.572 34.3385 49.6149 33.815 49.7038 33.252L47.7282 32.94C47.6251 33.593 47.572 34.2215 47.572 34.824H49.572ZM49.1632 32.2016L48.6832 31.9616L47.7888 33.7504L48.2688 33.9904L49.1632 32.2016ZM47.304 32.4936C46.4654 34.65 45.2566 36.2981 43.6953 37.4836L44.9047 39.0764C46.7994 37.6379 48.2146 35.67 49.168 33.2184L47.304 32.4936ZM43.6976 37.4818C42.1711 38.6339 40.4936 39.2 38.636 39.2V41.2C40.9384 41.2 43.0369 40.4861 44.9024 39.0782L43.6976 37.4818ZM61.9685 39.192L61.5213 40.0865L61.5297 40.0906L61.9685 39.192ZM59.0885 36.264L58.1728 36.666L58.1766 36.6744L59.0885 36.264ZM58.8965 24.984L57.9079 24.8336L58.8965 24.984ZM61.5365 9.192L62.5219 9.36246L62.5921 8.95626L62.3557 8.61853L61.5365 9.192ZM58.8485 5.352L58.2571 4.54559L57.4683 5.12407L58.0293 5.92546L58.8485 5.352ZM63.3605 2.808L63.7384 3.73385L63.3605 2.808ZM70.9925 2.664L70.3257 3.40924L70.3369 3.41925L70.3484 3.42891L70.9925 2.664ZM71.5205 8.328L70.542 8.12199L70.5393 8.13438L70.537 8.14684L71.5205 8.328ZM70.4165 13.416L69.4431 13.187L69.4419 13.1918L70.4165 13.416ZM69.5045 17.304L69.9517 16.4096L68.7929 15.8301L68.526 17.098L69.5045 17.304ZM69.9845 17.544L69.5373 18.4384L70.5188 18.9292L70.9165 17.9064L69.9845 17.544ZM73.8725 12.168L74.4749 12.9662L74.4772 12.9644L73.8725 12.168ZM84.2885 11.592L83.7203 12.4149L83.7294 12.4211L84.2885 11.592ZM87.4565 15.576L86.5365 15.9679L86.5392 15.9741L87.4565 15.576ZM85.9205 31.272L86.7685 31.802L86.7712 31.7977L85.9205 31.272ZM78.4805 37.848L78.9205 38.746L78.4805 37.848ZM66.6245 35.256H65.6245V36.3579L66.7213 36.2513L66.6245 35.256ZM72.9125 33.24L72.4023 32.3799L72.9125 33.24ZM77.3765 28.968L76.5328 28.4311L76.5303 28.4352L77.3765 28.968ZM78.0485 19.752L77.2449 20.3472L77.2574 20.364L77.2706 20.3803L78.0485 19.752ZM70.9445 20.568L70.2211 19.8775L70.2208 19.8779L70.9445 20.568ZM67.7765 26.472L66.822 26.1737L66.8197 26.1813L67.7765 26.472ZM67.4885 39.2C65.2665 39.2 63.5952 38.8736 62.4073 38.2934L61.5297 40.0906C63.0938 40.8544 65.1025 41.2 67.4885 41.2V39.2ZM62.4157 38.2976C61.2621 37.7208 60.475 36.9082 60.0004 35.8536L58.1766 36.6744C58.854 38.1798 59.9869 39.3192 61.5213 40.0864L62.4157 38.2976ZM60.0042 35.862C59.5008 34.7155 59.2245 33.2154 59.2245 31.32H57.2245C57.2245 33.3926 57.5242 35.1885 58.1729 36.666L60.0042 35.862ZM59.2245 31.32C59.2245 30.1226 59.4374 28.0765 59.8851 25.1344L57.9079 24.8336C57.4596 27.7795 57.2245 29.9574 57.2245 31.32H59.2245ZM59.8851 25.1344C60.3314 22.2017 61.2098 16.947 62.5219 9.36246L60.5511 9.02153C59.2392 16.605 58.3576 21.8783 57.9079 24.8336L59.8851 25.1344ZM62.3557 8.61853L59.6677 4.77854L58.0293 5.92546L60.7173 9.76546L62.3557 8.61853ZM59.4399 6.15841C60.8175 5.14818 62.2502 4.34128 63.7384 3.73385L62.9826 1.88215C61.3348 2.55471 59.7596 3.44382 58.2571 4.54559L59.4399 6.15841ZM63.7384 3.73385C65.2102 3.13311 66.5695 2.848 67.8245 2.848V0.848C66.2635 0.848 64.6468 1.20288 62.9826 1.88215L63.7384 3.73385ZM67.8245 2.848C69.267 2.848 70.0031 3.12063 70.3257 3.40924L71.6593 1.91876C70.7659 1.11937 69.39 0.848 67.8245 0.848V2.848ZM70.3484 3.42891C70.633 3.66864 70.9045 4.17747 70.9045 5.256H72.9045C72.9045 3.90253 72.568 2.68335 71.6366 1.89909L70.3484 3.42891ZM70.9045 5.256C70.9045 5.99388 70.7899 6.94402 70.542 8.12199L72.4991 8.53401C72.7631 7.27997 72.9045 6.18211 72.9045 5.256H70.9045ZM70.537 8.14684C70.3175 9.33889 69.9538 11.0164 69.4431 13.187L71.3899 13.645C71.9032 11.4636 72.2755 9.7491 72.504 8.50916L70.537 8.14684ZM69.4419 13.1918C69.0739 14.7919 68.8144 15.914 68.6629 16.5596C68.5862 16.8868 68.5397 17.081 68.5207 17.1552C68.5136 17.1828 68.5172 17.1669 68.5258 17.1398C68.5265 17.1377 68.5394 17.0961 68.5618 17.0454C68.5624 17.0439 68.6084 16.9308 68.7034 16.815C68.7209 16.7938 68.919 16.5341 69.2984 16.4656C69.4823 16.4496 69.8474 16.521 70.0154 16.6074C70.135 16.6973 70.3027 16.8867 70.3566 16.9754C70.4455 17.1405 70.4636 17.2886 70.4677 17.3204C70.475 17.3762 70.4759 17.4209 70.476 17.4431C70.4763 17.4889 70.4733 17.5244 70.4721 17.5368C70.4695 17.5661 70.4661 17.5881 70.4655 17.5926C70.4626 17.6114 70.4643 17.5993 70.4831 17.51L68.526 17.098C68.5127 17.1607 68.4959 17.2411 68.488 17.2929C68.4867 17.3015 68.483 17.3267 68.4801 17.3582C68.4789 17.3718 68.4758 17.4082 68.4761 17.4547C68.4762 17.4772 68.4771 17.5222 68.4844 17.5783C68.4886 17.6102 68.5068 17.7585 68.5957 17.9236C68.6496 18.0124 68.8173 18.2018 68.937 18.2918C69.105 18.3782 69.4701 18.4496 69.6541 18.4337C70.0335 18.3651 70.2318 18.1054 70.2493 18.084C70.3446 17.9679 70.3908 17.8544 70.3918 17.8522C70.4148 17.8 70.4285 17.756 70.4303 17.7506C70.4432 17.7103 70.4544 17.6662 70.4583 17.6508C70.4833 17.553 70.5348 17.3372 70.6101 17.0164C70.7626 16.366 71.0231 15.2401 71.3911 13.6401L69.4419 13.1918ZM69.0573 18.1984L69.5373 18.4384L70.4317 16.6496L69.9517 16.4096L69.0573 18.1984ZM70.9165 17.9064C71.7564 15.7467 72.9499 14.1171 74.4749 12.9662L73.2701 11.3698C71.4031 12.7789 70.0046 14.7333 69.0525 17.1816L70.9165 17.9064ZM74.4772 12.9644C76.0393 11.7784 77.7328 11.2 79.5845 11.2V9.2C77.2762 9.2 75.1617 9.93359 73.2678 11.3716L74.4772 12.9644ZM79.5845 11.2C81.1942 11.2 82.5596 11.6134 83.7203 12.4149L84.8567 10.7691C83.3294 9.71457 81.5588 9.2 79.5845 9.2V11.2ZM83.7294 12.4211C84.925 13.2274 85.8658 14.3933 86.5365 15.9679L88.3765 15.1841C87.5752 13.3027 86.404 11.8126 84.8476 10.7629L83.7294 12.4211ZM86.5392 15.9741C87.2104 17.5208 87.5605 19.3486 87.5605 21.48H89.5605C89.5605 19.1314 89.1746 17.0232 88.3738 15.1779L86.5392 15.9741ZM87.5605 21.48C87.5605 24.9933 86.7227 28.0717 85.0698 30.7463L86.7712 31.7977C88.6383 28.7763 89.5605 25.3267 89.5605 21.48H87.5605ZM85.0725 30.742C83.4187 33.388 81.0856 35.4579 78.0405 36.95L78.9205 38.746C82.2754 37.1021 84.9023 34.788 86.7685 31.802L85.0725 30.742ZM78.0405 36.95C74.9976 38.441 71.4881 39.2 67.4885 39.2V41.2C71.7449 41.2 75.5634 40.391 78.9205 38.746L78.0405 36.95ZM66.7213 36.2513C69.1632 36.0139 71.4016 35.299 73.4227 34.1001L72.4023 32.3799C70.6474 33.421 68.6938 34.0501 66.5277 34.2607L66.7213 36.2513ZM73.4227 34.1001C75.4366 32.9054 77.044 31.3729 78.2227 29.5008L76.5303 28.4352C75.533 30.0191 74.1644 31.3346 72.4023 32.3799L73.4227 34.1001ZM78.2202 29.5049C79.4368 27.5931 80.0565 25.5362 80.0565 23.352H78.0565C78.0565 25.1358 77.5563 26.8229 76.5328 28.4311L78.2202 29.5049ZM80.0565 23.352C80.0565 21.6585 79.6958 20.2 78.8264 19.1237L77.2706 20.3803C77.7452 20.968 78.0565 21.9095 78.0565 23.352H80.0565ZM78.8521 19.1568C78.0024 18.0098 76.7763 17.456 75.3125 17.456V19.456C76.2167 19.456 76.8146 19.7662 77.2449 20.3472L78.8521 19.1568ZM75.3125 17.456C73.4081 17.456 71.7053 18.3227 70.2211 19.8775L71.6679 21.2585C72.8717 19.9973 74.081 19.456 75.3125 19.456V17.456ZM70.2208 19.8779C68.7684 21.4011 67.6502 23.5235 66.822 26.1737L68.731 26.7703C69.5028 24.3005 70.4966 22.4869 71.6682 21.2581L70.2208 19.8779ZM66.8197 26.1813C66.0168 28.8243 65.6245 31.8538 65.6245 35.256H67.6245C67.6245 32.0022 68.0003 29.1757 68.7333 26.7627L66.8197 26.1813ZM88.8485 39.192L88.4013 40.0865L88.4097 40.0906L88.8485 39.192ZM85.9685 36.264L85.0528 36.666L85.0566 36.6744L85.9685 36.264ZM85.7765 24.984L84.7879 24.8336L85.7765 24.984ZM88.4165 9.192L89.4019 9.36246L89.4721 8.95626L89.2357 8.61853L88.4165 9.192ZM85.7285 5.352L85.1371 4.54559L84.3483 5.12407L84.9093 5.92546L85.7285 5.352ZM90.2405 2.808L90.6184 3.73385L90.2405 2.808ZM97.8725 2.664L97.2057 3.40924L97.2169 3.41925L97.2284 3.42891L97.8725 2.664ZM98.4005 8.328L97.422 8.12199L97.4193 8.13438L97.4171 8.14684L98.4005 8.328ZM97.2965 13.416L96.3231 13.187L96.3219 13.1918L97.2965 13.416ZM96.3845 17.304L96.8317 16.4096L95.6729 15.8301L95.4059 17.098L96.3845 17.304ZM96.8645 17.544L96.4173 18.4384L97.3988 18.9292L97.7965 17.9064L96.8645 17.544ZM100.753 12.168L101.355 12.9662L101.357 12.9644L100.753 12.168ZM111.169 11.592L110.6 12.4149L110.609 12.4211L111.169 11.592ZM114.337 15.576L113.416 15.9679L113.419 15.9741L114.337 15.576ZM112.801 31.272L113.649 31.802L113.651 31.7977L112.801 31.272ZM105.361 37.848L105.801 38.746L105.361 37.848ZM93.5045 35.256H92.5045V36.3579L93.6013 36.2513L93.5045 35.256ZM99.7925 33.24L99.2823 32.3799L99.7925 33.24ZM104.257 28.968L103.413 28.4311L103.41 28.4352L104.257 28.968ZM104.928 19.752L104.125 20.3472L104.137 20.364L104.151 20.3803L104.928 19.752ZM97.8245 20.568L97.1012 19.8775L97.1008 19.8779L97.8245 20.568ZM94.6565 26.472L93.702 26.1737L93.6997 26.1813L94.6565 26.472ZM94.3685 39.2C92.1465 39.2 90.4752 38.8736 89.2873 38.2934L88.4097 40.0906C89.9738 40.8544 91.9825 41.2 94.3685 41.2V39.2ZM89.2957 38.2976C88.1421 37.7208 87.355 36.9082 86.8804 35.8536L85.0566 36.6744C85.734 38.1798 86.8669 39.3192 88.4013 40.0864L89.2957 38.2976ZM86.8841 35.862C86.3808 34.7155 86.1045 33.2154 86.1045 31.32H84.1045C84.1045 33.3926 84.4042 35.1885 85.0529 36.666L86.8841 35.862ZM86.1045 31.32C86.1045 30.1226 86.3174 28.0765 86.7651 25.1344L84.7879 24.8336C84.3396 27.7795 84.1045 29.9574 84.1045 31.32H86.1045ZM86.7651 25.1344C87.2114 22.2017 88.0898 16.947 89.4019 9.36246L87.4311 9.02153C86.1192 16.605 85.2376 21.8783 84.7879 24.8336L86.7651 25.1344ZM89.2357 8.61853L86.5477 4.77854L84.9093 5.92546L87.5973 9.76546L89.2357 8.61853ZM86.3199 6.15841C87.6974 5.14818 89.1302 4.34128 90.6184 3.73385L89.8626 1.88215C88.2148 2.55471 86.6396 3.44382 85.1371 4.54559L86.3199 6.15841ZM90.6184 3.73385C92.0902 3.13311 93.4495 2.848 94.7045 2.848V0.848C93.1435 0.848 91.5268 1.20288 89.8626 1.88215L90.6184 3.73385ZM94.7045 2.848C96.147 2.848 96.8831 3.12063 97.2057 3.40924L98.5393 1.91876C97.6459 1.11937 96.27 0.848 94.7045 0.848V2.848ZM97.2284 3.42891C97.513 3.66864 97.7845 4.17747 97.7845 5.256H99.7845C99.7845 3.90253 99.448 2.68335 98.5166 1.89909L97.2284 3.42891ZM97.7845 5.256C97.7845 5.99388 97.6699 6.94402 97.422 8.12199L99.379 8.53401C99.6431 7.27997 99.7845 6.18211 99.7845 5.256H97.7845ZM97.4171 8.14684C97.1975 9.33889 96.8338 11.0164 96.3231 13.187L98.2699 13.645C98.7832 11.4636 99.1555 9.7491 99.384 8.50916L97.4171 8.14684ZM96.3219 13.1918C95.9539 14.7919 95.6944 15.914 95.5429 16.5596C95.4662 16.8868 95.4197 17.081 95.4007 17.1552C95.3936 17.1828 95.3972 17.1669 95.4059 17.1398C95.4065 17.1377 95.4194 17.0961 95.4418 17.0454C95.4424 17.0439 95.4884 16.9308 95.5835 16.815C95.6009 16.7938 95.799 16.5341 96.1784 16.4656C96.3623 16.4496 96.7274 16.521 96.8954 16.6074C97.015 16.6973 97.1827 16.8867 97.2366 16.9754C97.3255 17.1405 97.3436 17.2886 97.3477 17.3204C97.355 17.3762 97.3559 17.4209 97.356 17.4431C97.3563 17.4889 97.3533 17.5244 97.3521 17.5368C97.3495 17.5661 97.3461 17.5881 97.3455 17.5926C97.3426 17.6114 97.3443 17.5993 97.3631 17.51L95.4059 17.098C95.3927 17.1607 95.3759 17.2411 95.368 17.2929C95.3667 17.3015 95.3629 17.3267 95.3601 17.3582C95.3589 17.3718 95.3558 17.4082 95.3561 17.4547C95.3562 17.4772 95.3571 17.5222 95.3644 17.5783C95.3686 17.6102 95.3868 17.7585 95.4757 17.9236C95.5296 18.0124 95.6973 18.2018 95.817 18.2918C95.985 18.3782 96.3501 18.4496 96.5341 18.4337C96.9135 18.3651 97.1118 18.1054 97.1293 18.084C97.2246 17.9679 97.2708 17.8544 97.2718 17.8522C97.2948 17.8 97.3085 17.756 97.3103 17.7506C97.3232 17.7103 97.3344 17.6662 97.3383 17.6508C97.3633 17.553 97.4148 17.3372 97.4901 17.0164C97.6426 16.366 97.9031 15.2401 98.2711 13.6401L96.3219 13.1918ZM95.9373 18.1984L96.4173 18.4384L97.3117 16.6496L96.8317 16.4096L95.9373 18.1984ZM97.7965 17.9064C98.6364 15.7467 99.8299 14.1171 101.355 12.9662L100.15 11.3698C98.2831 12.7789 96.8846 14.7333 95.9325 17.1816L97.7965 17.9064ZM101.357 12.9644C102.919 11.7784 104.613 11.2 106.465 11.2V9.2C104.156 9.2 102.042 9.93359 100.148 11.3716L101.357 12.9644ZM106.465 11.2C108.074 11.2 109.44 11.6134 110.6 12.4149L111.737 10.7691C110.209 9.71457 108.439 9.2 106.465 9.2V11.2ZM110.609 12.4211C111.805 13.2274 112.746 14.3933 113.416 15.9679L115.257 15.1841C114.455 13.3027 113.284 11.8126 111.728 10.7629L110.609 12.4211ZM113.419 15.9741C114.09 17.5208 114.441 19.3486 114.441 21.48H116.441C116.441 19.1314 116.055 17.0232 115.254 15.1779L113.419 15.9741ZM114.441 21.48C114.441 24.9933 113.603 28.0717 111.95 30.7463L113.651 31.7977C115.518 28.7763 116.441 25.3267 116.441 21.48H114.441ZM111.952 30.742C110.299 33.388 107.966 35.4579 104.92 36.95L105.801 38.746C109.155 37.1021 111.782 34.788 113.648 31.802L111.952 30.742ZM104.92 36.95C101.878 38.441 98.3681 39.2 94.3685 39.2V41.2C98.6249 41.2 102.443 40.391 105.801 38.746L104.92 36.95ZM93.6013 36.2513C96.0432 36.0139 98.2816 35.299 100.303 34.1001L99.2823 32.3799C97.5274 33.421 95.5738 34.0501 93.4077 34.2607L93.6013 36.2513ZM100.303 34.1001C102.317 32.9054 103.924 31.3729 105.103 29.5008L103.41 28.4352C102.413 30.0191 101.044 31.3346 99.2823 32.3799L100.303 34.1001ZM105.1 29.5049C106.317 27.5931 106.936 25.5362 106.936 23.352H104.936C104.936 25.1358 104.436 26.8229 103.413 28.4311L105.1 29.5049ZM106.936 23.352C106.936 21.6585 106.576 20.2 105.706 19.1237L104.151 20.3803C104.625 20.968 104.936 21.9095 104.936 23.352H106.936ZM105.732 19.1568C104.882 18.0098 103.656 17.456 102.193 17.456V19.456C103.097 19.456 103.695 19.7662 104.125 20.3472L105.732 19.1568ZM102.193 17.456C100.288 17.456 98.5853 18.3227 97.1012 19.8775L98.5479 21.2585C99.7517 19.9973 100.961 19.456 102.193 19.456V17.456ZM97.1008 19.8779C95.6484 21.4011 94.5302 23.5235 93.702 26.1737L95.611 26.7703C96.3828 24.3005 97.3766 22.4869 98.5482 21.2581L97.1008 19.8779ZM93.6997 26.1813C92.8968 28.8243 92.5045 31.8538 92.5045 35.256H94.5045C94.5045 32.0022 94.8802 29.1757 95.6133 26.7627L93.6997 26.1813ZM107.281 47.16L107.844 46.3337L107.835 46.3279L107.281 47.16ZM105.84 40.344L104.966 39.8584L105.84 40.344ZM107.473 38.376L108.327 37.857L107.76 36.9222L106.879 37.5709L107.473 38.376ZM109.777 40.584L110.279 39.7192L109.777 40.584ZM121.441 38.184L122.052 38.9753L121.441 38.184ZM128.592 28.92L129.491 29.3586L129.493 29.3557L128.592 28.92ZM131.281 12.264L130.592 11.539L130.207 11.9047L130.294 12.4284L131.281 12.264ZM133.729 10.776L133.377 9.83962L133.368 9.84343L133.729 10.776ZM137.713 28.344L136.795 27.9468L137.713 28.344ZM127.825 42.552L127.137 41.8259L127.134 41.8286L127.825 42.552ZM121.825 40.2V41.2H122.156L122.422 41.0018L121.825 40.2ZM115.729 38.088L114.981 38.7524L114.989 38.7611L114.997 38.7697L115.729 38.088ZM113.329 32.856L112.338 32.9953L112.339 33.0028L112.34 33.0104L113.329 32.856ZM112.896 24.696H113.897L113.896 24.6821L112.896 24.696ZM112.704 19.176L111.706 19.2225L111.706 19.234L111.707 19.2456L112.704 19.176ZM110.209 12.264L109.578 11.4874L108.662 12.231L109.546 13.013L110.209 12.264ZM120.433 12.168L119.616 12.7455L119.621 12.752L119.625 12.7585L120.433 12.168ZM122.161 16.968L121.166 17.0692L122.161 16.968ZM122.401 24.456L123.4 24.4679L123.4 24.4663L122.401 24.456ZM122.545 30.888L121.548 30.9677L121.548 30.9694L122.545 30.888ZM123.745 34.824L122.901 35.3609L123.745 34.824ZM126.913 36.408L127.51 37.2098L129.928 35.408H126.913V36.408ZM113.473 47.6C110.844 47.6 109.014 47.1314 107.844 46.3338L106.717 47.9862C108.363 49.1086 110.661 49.6 113.473 49.6V47.6ZM107.835 46.3279C106.691 45.565 106.12 44.4952 106.12 42.984H104.12C104.12 45.1208 104.99 46.835 106.726 47.9921L107.835 46.3279ZM106.12 42.984C106.12 42.275 106.308 41.5608 106.715 40.8296L104.966 39.8584C104.413 40.8552 104.12 41.901 104.12 42.984H106.12ZM106.715 40.8296C107.146 40.054 107.603 39.522 108.066 39.1811L106.879 37.5709C106.126 38.126 105.495 38.906 104.966 39.8584L106.715 40.8296ZM106.618 38.895C107.257 39.9471 108.152 40.7969 109.274 41.4488L110.279 39.7192C109.417 39.2191 108.776 38.5969 108.327 37.857L106.618 38.895ZM109.274 41.4488C110.462 42.1384 111.914 42.448 113.569 42.448V40.448C112.151 40.448 111.075 40.1816 110.279 39.7192L109.274 41.4488ZM113.569 42.448C116.304 42.448 119.139 41.2262 122.052 38.9753L120.829 37.3927C118.11 39.4938 115.697 40.448 113.569 40.448V42.448ZM122.052 38.9753C125.016 36.6848 127.488 33.4629 129.491 29.3586L127.694 28.4814C125.793 32.3771 123.497 35.3312 120.829 37.3927L122.052 38.9753ZM129.493 29.3557C131.52 25.1673 132.521 20.3902 132.521 15.048H130.521C130.521 20.1378 129.569 24.6087 127.692 28.4843L129.493 29.3557ZM132.521 15.048C132.521 14.0924 132.435 13.1093 132.267 12.0996L130.294 12.4284C130.446 13.3387 130.521 14.2116 130.521 15.048H132.521ZM131.969 12.989C132.497 12.4873 133.195 12.0549 134.089 11.7086L133.368 9.84343C132.278 10.2651 131.344 10.8247 130.592 11.539L131.969 12.989ZM134.08 11.7123C135.015 11.3614 135.856 11.2 136.609 11.2V9.2C135.569 9.2 134.49 9.42256 133.377 9.83967L134.08 11.7123ZM136.609 11.2C138.029 11.2 138.908 11.5243 139.429 11.9966C139.931 12.4522 140.265 13.1966 140.265 14.424H142.265C142.265 12.8354 141.822 11.4678 140.772 10.5154C139.741 9.5797 138.292 9.2 136.609 9.2V11.2ZM140.265 14.424C140.265 18.0401 139.136 22.5369 136.795 27.9468L138.63 28.7412C141.025 23.2071 142.265 18.4239 142.265 14.424H140.265ZM136.795 27.9468C134.479 33.2979 131.26 37.9212 127.137 41.8259L128.512 43.2781C132.837 39.1828 136.21 34.3341 138.63 28.7412L136.795 27.9468ZM127.134 41.8286C123.077 45.7011 118.534 47.6 113.473 47.6V49.6C119.099 49.6 124.124 47.4669 128.515 43.2754L127.134 41.8286ZM121.825 39.2C119.229 39.2 117.514 38.5368 116.46 37.4063L114.997 38.7697C116.567 40.4552 118.916 41.2 121.825 41.2V39.2ZM116.476 37.4236C115.333 36.138 114.609 34.5751 114.317 32.7016L112.34 33.0104C112.688 35.2329 113.564 37.158 114.981 38.7524L116.476 37.4236ZM114.319 32.7167C114.04 30.7346 113.896 28.0668 113.896 24.696H111.896C111.896 28.1092 112.041 30.8814 112.338 32.9953L114.319 32.7167ZM113.896 24.6821C113.864 22.37 113.8 20.5091 113.702 19.1064L111.707 19.2456C111.801 20.5949 111.865 22.414 111.897 24.7099L113.896 24.6821ZM113.703 19.1295C113.636 17.6741 113.398 16.2786 112.988 14.9459L111.077 15.5341C111.435 16.6974 111.645 17.9259 111.706 19.2225L113.703 19.1295ZM112.988 14.9459C112.56 13.5534 111.863 12.3928 110.871 11.515L109.546 13.013C110.218 13.6072 110.737 14.4306 111.077 15.5341L112.988 14.9459ZM110.839 13.0406C112.363 11.8038 114.046 11.2 115.921 11.2V9.2C113.571 9.2 111.446 9.97223 109.578 11.4874L110.839 13.0406ZM115.921 11.2C117.782 11.2 118.929 11.7745 119.616 12.7455L121.249 11.5905C120.08 9.93754 118.219 9.2 115.921 9.2V11.2ZM119.625 12.7585C120.464 13.9045 120.989 15.3282 121.166 17.0692L123.155 16.8668C122.948 14.8318 122.321 13.0555 121.24 11.5775L119.625 12.7585ZM121.166 17.0692C121.352 18.9044 121.432 21.3587 121.401 24.4457L123.4 24.4663C123.433 21.3452 123.353 18.8076 123.155 16.8668L121.166 17.0692ZM121.401 24.4441C121.368 27.1453 121.416 29.3238 121.548 30.9677L123.541 30.8083C123.417 29.2522 123.369 27.1427 123.4 24.4679L121.401 24.4441ZM121.548 30.9694C121.686 32.6586 122.122 34.137 122.901 35.3609L124.588 34.2871C124.023 33.399 123.659 32.2534 123.541 30.8066L121.548 30.9694ZM122.901 35.3609C123.787 36.7528 125.191 37.408 126.913 37.408V35.408C125.754 35.408 125.046 35.0072 124.588 34.2871L122.901 35.3609ZM126.315 35.6062L121.227 39.3982L122.422 41.0018L127.51 37.2098L126.315 35.6062ZM136.89 18.552L136.466 17.6463L135.654 18.0263L135.944 18.8747L136.89 18.552ZM140.538 15.384L139.706 14.8293L139.703 14.8337L140.538 15.384ZM141.978 11.352H142.978V11.0089L142.767 10.7381L141.978 11.352ZM138.618 7.032L137.619 7.00076L137.607 7.36125L137.829 7.64594L138.618 7.032ZM139.53 4.2L140.362 4.7547L140.367 4.74776L140.371 4.74076L139.53 4.2ZM141.786 2.088L142.269 2.96363L142.279 2.95802L141.786 2.088ZM148.554 2.904L147.793 3.55294L148.554 2.904ZM148.41 12.936L147.528 12.4654L147.522 12.477L148.41 12.936ZM144.138 17.88L144.725 18.69L144.734 18.6833L144.138 17.88ZM137.61 20.664L136.664 20.9867L136.948 21.8207L137.811 21.6436L137.61 20.664ZM137.314 19.4577C138.988 18.6742 140.345 17.4939 141.373 15.9343L139.703 14.8337C138.875 16.0901 137.8 17.0218 136.466 17.6463L137.314 19.4577ZM141.37 15.9387C142.399 14.3958 142.978 12.8602 142.978 11.352H140.978C140.978 12.3398 140.597 13.4922 139.706 14.8293L141.37 15.9387ZM142.767 10.7381L139.407 6.41806L137.829 7.64594L141.189 11.9659L142.767 10.7381ZM139.618 7.06324C139.644 6.2286 139.888 5.4655 140.362 4.7547L138.698 3.6453C138.02 4.66249 137.657 5.7874 137.619 7.00076L139.618 7.06324ZM140.371 4.74076C140.858 3.98362 141.487 3.39499 142.269 2.96357L141.303 1.21242C140.229 1.805 139.354 2.62438 138.689 3.65924L140.371 4.74076ZM142.279 2.95802C143.096 2.49524 143.935 2.272 144.81 2.272V0.271999C143.573 0.271999 142.396 0.592758 141.293 1.21798L142.279 2.95802ZM144.81 2.272C146.117 2.272 147.075 2.71087 147.793 3.55294L149.315 2.25505C148.177 0.921124 146.639 0.271999 144.81 0.271999V2.272ZM147.793 3.55294C148.558 4.45004 148.946 5.5125 148.946 6.792H150.946C150.946 5.0635 150.406 3.53395 149.315 2.25505L147.793 3.55294ZM148.946 6.792C148.946 8.80386 148.475 10.6902 147.528 12.4654L149.292 13.4066C150.394 11.3418 150.946 9.13214 150.946 6.792H148.946ZM147.522 12.477C146.605 14.2521 145.285 15.7852 143.543 17.0767L144.734 18.6833C146.704 17.2228 148.232 15.4599 149.299 13.395L147.522 12.477ZM143.552 17.0701C141.823 18.3219 139.782 19.1977 137.409 19.6844L137.811 21.6436C140.431 21.1063 142.741 20.1261 144.725 18.6899L143.552 17.0701ZM138.557 20.3413L137.837 18.2293L135.944 18.8747L136.664 20.9867L138.557 20.3413ZM145.274 38.616L144.774 39.4825L144.785 39.4888L145.274 38.616ZM143.162 31.656L142.28 31.1838L143.162 31.656ZM145.178 29.352L146.053 28.8694L145.501 27.8676L144.582 28.5484L145.178 29.352ZM148.634 33.048L148.105 33.8971L148.112 33.9013L148.119 33.9055L148.634 33.048ZM157.13 33.624L157.524 34.5431L157.535 34.5384L157.545 34.5335L157.13 33.624ZM157.706 30.072L157.274 30.9741L157.706 30.072ZM154.01 28.728L154.31 27.7741L154.298 27.7706L154.01 28.728ZM148.97 26.952L148.557 27.8631L148.567 27.8672L148.576 27.8711L148.97 26.952ZM145.466 24.408L144.717 25.071L144.722 25.0764L144.727 25.0818L145.466 24.408ZM146.042 14.52L145.312 13.8366L145.311 13.8371L146.042 14.52ZM151.61 11.256L151.89 12.216L151.898 12.2135L151.61 11.256ZM167.306 11.784L166.83 12.6636L166.841 12.6695L167.306 11.784ZM168.698 19.272L169.328 20.0481L168.698 19.272ZM161.258 19.272L161.843 18.4613L161.258 19.272ZM158.522 15.624L159.444 15.2368L159.159 14.5588L158.427 14.6285L158.522 15.624ZM154.25 20.328L153.571 21.0628L153.601 21.0898L153.632 21.1143L154.25 20.328ZM155.882 21.24L155.51 22.1685L155.538 22.1794L155.565 22.1887L155.882 21.24ZM158.762 22.152L158.468 23.1078L158.469 23.1081L158.762 22.152ZM163.658 23.928L163.247 24.84L163.256 24.8436L163.658 23.928ZM167.018 26.472L166.248 27.11L166.253 27.1164L166.258 27.1228L167.018 26.472ZM166.25 36.168L165.558 35.4454L166.25 36.168ZM160.778 39.24L160.495 38.2806L160.492 38.2818L160.778 39.24ZM154.394 39.2C150.24 39.2 147.417 38.6689 145.762 37.7432L144.785 39.4888C146.906 40.6751 150.163 41.2 154.394 41.2V39.2ZM145.773 37.7496C144.123 36.799 143.442 35.6391 143.442 34.248H141.442C141.442 36.5049 142.648 38.257 144.774 39.4824L145.773 37.7496ZM143.442 34.248C143.442 33.6135 143.624 32.9108 144.043 32.1282L142.28 31.1838C141.739 32.1932 141.442 33.2185 141.442 34.248H143.442ZM144.043 32.1282C144.449 31.3699 145.021 30.7128 145.773 30.1556L144.582 28.5484C143.607 29.2712 142.834 30.1501 142.28 31.1838L144.043 32.1282ZM144.302 29.8346C145.244 31.5438 146.512 32.9056 148.105 33.8971L149.162 32.1989C147.875 31.3984 146.84 30.2962 146.053 28.8694L144.302 29.8346ZM148.119 33.9055C149.745 34.8813 151.676 35.344 153.866 35.344V33.344C151.959 33.344 150.402 32.9427 149.148 32.1905L148.119 33.9055ZM153.866 35.344C155.076 35.344 156.298 35.0684 157.524 34.5431L156.736 32.7049C155.721 33.1396 154.767 33.344 153.866 33.344V35.344ZM157.545 34.5335C158.883 33.9222 159.81 32.9159 159.81 31.464H157.81C157.81 31.8681 157.617 32.3018 156.714 32.7145L157.545 34.5335ZM159.81 31.464C159.81 30.3474 159.054 29.6083 158.137 29.1699L157.274 30.9741C157.554 31.1079 157.689 31.2287 157.75 31.3054C157.798 31.366 157.81 31.4084 157.81 31.464H159.81ZM158.137 29.1699C157.332 28.785 156.042 28.3195 154.31 27.7742L153.709 29.6818C155.433 30.2245 156.607 30.655 157.274 30.9741L158.137 29.1699ZM154.298 27.7706C152.304 27.1691 150.662 26.5893 149.364 26.0329L148.576 27.8711C149.965 28.4667 151.683 29.0709 153.721 29.6854L154.298 27.7706ZM149.382 26.0409C148.161 25.4888 147.105 24.7215 146.205 23.7342L144.727 25.0818C145.811 26.2705 147.09 27.1992 148.557 27.8631L149.382 26.0409ZM146.214 23.745C145.409 22.8359 144.978 21.66 144.978 20.136H142.978C142.978 22.068 143.538 23.7401 144.717 25.071L146.214 23.745ZM144.978 20.136C144.978 18.0826 145.592 16.4656 146.772 15.2029L145.311 13.8371C143.739 15.5184 142.978 17.6454 142.978 20.136H144.978ZM146.772 15.2034C148.038 13.8505 149.729 12.8462 151.89 12.216L151.33 10.296C148.882 11.0098 146.861 12.1815 145.312 13.8366L146.772 15.2034ZM151.898 12.2135C154.127 11.5416 156.605 11.2 159.338 11.2V9.2C156.439 9.2 153.764 9.56237 151.321 10.2985L151.898 12.2135ZM159.338 11.2C162.61 11.2 165.08 11.717 166.83 12.6635L167.781 10.9045C165.627 9.73903 162.785 9.2 159.338 9.2V11.2ZM166.841 12.6695C168.579 13.5814 169.234 14.6542 169.234 15.864H171.234C171.234 13.6818 169.936 12.0346 167.77 10.8985L166.841 12.6695ZM169.234 15.864C169.234 17.0343 168.834 17.8727 168.067 18.4959L169.328 20.0481C170.609 19.0073 171.234 17.5737 171.234 15.864H169.234ZM168.067 18.4959C167.238 19.1695 166.234 19.52 165.002 19.52V21.52C166.649 21.52 168.109 21.0385 169.328 20.0481L168.067 18.4959ZM165.002 19.52C163.88 19.52 162.835 19.1777 161.843 18.4613L160.672 20.0827C161.984 21.0303 163.435 21.52 165.002 21.52V19.52ZM161.843 18.4613C160.87 17.7584 160.06 16.7049 159.444 15.2368L157.6 16.0112C158.327 17.7431 159.341 19.1216 160.672 20.0827L161.843 18.4613ZM158.427 14.6285C156.956 14.7686 155.646 15.1766 154.531 15.8832L155.601 17.5728C156.405 17.0634 157.4 16.7354 158.616 16.6195L158.427 14.6285ZM154.531 15.8832C153.37 16.6185 152.626 17.6523 152.626 18.984H154.626C154.626 18.5237 154.842 18.0535 155.601 17.5728L154.531 15.8832ZM152.626 18.984C152.626 19.8063 152.974 20.5117 153.571 21.0628L154.928 19.5932C154.693 19.3763 154.626 19.1857 154.626 18.984H152.626ZM153.632 21.1143C154.169 21.536 154.8 21.8842 155.51 22.1685L156.253 20.3115C155.684 20.0838 155.227 19.824 154.867 19.5417L153.632 21.1143ZM155.565 22.1887C156.248 22.4164 157.217 22.7231 158.468 23.1078L159.056 21.1962C157.81 20.8129 156.859 20.5116 156.198 20.2913L155.565 22.1887ZM158.469 23.1081C160.43 23.7091 162.019 24.2871 163.247 24.8399L164.068 23.0161C162.736 22.4169 161.062 21.8109 159.055 21.1959L158.469 23.1081ZM163.256 24.8436C164.423 25.3561 165.417 26.1081 166.248 27.11L167.788 25.834C166.762 24.5959 165.516 23.6519 164.06 23.0124L163.256 24.8436ZM166.258 27.1228C167.031 28.0247 167.458 29.2333 167.458 30.84H169.458C169.458 28.8627 168.924 27.1593 167.777 25.8212L166.258 27.1228ZM167.458 30.84C167.458 32.7271 166.822 34.2368 165.558 35.4454L166.941 36.8906C168.621 35.2832 169.458 33.2409 169.458 30.84H167.458ZM165.558 35.4454C164.214 36.7308 162.536 37.6805 160.495 38.2806L161.06 40.1994C163.371 39.5195 165.341 38.4212 166.941 36.8906L165.558 35.4454ZM160.492 38.2818C158.435 38.8957 156.403 39.2 154.394 39.2V41.2C156.608 41.2 158.832 40.8643 161.064 40.1982L160.492 38.2818Z" fill="black" mask="url(#path-1-outside-1_6_12)"/>
<defs>
<filter id="filter0_i_6_12" x="0.764877" y="0.271973" width="170.469" height="55.152" filterUnits="userSpaceOnUse" color-interpolation-filters="sRGB">
<feFlood flood-opacity="0" result="BackgroundImageFix"/>
<feBlend mode="normal" in="SourceGraphic" in2="BackgroundImageFix" result="shape"/>
<feColorMatrix in="SourceAlpha" type="matrix" values="0 0 0 0 0 0 0 0 0 0 0 0 0 0 0 0 0 0 127 0" result="hardAlpha"/>
<feOffset dy="4"/>
<feGaussianBlur stdDeviation="2"/>
<feComposite in2="hardAlpha" operator="arithmetic" k2="-1" k3="1"/>
<feColorMatrix type="matrix" values="0 0 0 0 0 0 0 0 0 0 0 0 0 0 0 0 0 0 0.25 0"/>
<feBlend mode="normal" in2="shape" result="effect1_innerShadow_6_12"/>
</filter>
</defs>
</svg>
